<svg width="234" height="56" viewBox="0 0 234 56" fill="none" xmlns="http://www.w3.org/2000/svg">
<path d="M15.3474 33.5589C9.64405 32.0176 5.05866 27.4306 4.03547 21.4124C2.61438 13.1374 8.41244 5.30269 16.9579 3.92658C25.5035 2.55047 33.5942 8.165 35.0153 16.44C35.1858 17.4492 36.1711 18.1281 37.2133 17.9629C38.2554 17.7978 38.9565 16.8437 38.7859 15.8345C37.0238 5.52287 26.9435 -1.44943 16.3327 0.256946C5.72184 1.96332 -1.49732 11.7245 0.264839 22.0179C1.59119 29.7608 7.63558 35.6322 15.0821 37.3386C15.859 40.6596 19.1938 42.843 22.6992 42.2926C26.3561 41.7054 28.8193 38.3661 28.213 34.8249C27.6067 31.2837 24.1582 28.8984 20.5012 29.4856C18.0759 29.8525 16.1811 31.4672 15.3474 33.5589Z" fill="white"/>
<path d="M25.6171 22.7701C31.2068 24.66 35.4511 29.5406 36.0764 35.6139C36.929 43.9623 30.6004 51.4116 21.9981 52.2373C13.3957 53.063 5.68393 46.9347 4.83127 38.6046C4.73654 37.5955 3.78914 36.8432 2.747 36.9349C1.70487 37.0267 0.928005 37.9441 1.04169 38.9532C2.10278 49.3383 11.6715 56.9344 22.396 55.9069C33.1205 54.8794 40.9649 45.6136 39.9039 35.2285C39.108 27.4122 33.4805 21.1739 26.1666 18.9904C25.6171 15.6327 22.4528 13.2291 18.8906 13.5594C15.1958 13.9447 12.5052 17.1189 12.8652 20.6968C13.2252 24.2563 16.5032 26.8618 20.198 26.5132C22.6423 26.2746 24.6508 24.7884 25.6171 22.7701Z" fill="white"/>
<path d="M62.016 39.884C68.416 39.884 71.52 36.684 71.52 32.94C71.52 24.716 58.496 27.564 58.496 23.436C58.496 22.028 59.68 20.876 62.752 20.876C64.736 20.876 66.88 21.452 68.96 22.636L70.56 18.7C68.48 17.388 65.6 16.716 62.784 16.716C56.416 16.716 53.344 19.884 53.344 23.692C53.344 32.012 66.368 29.132 66.368 33.324C66.368 34.7 65.12 35.724 62.048 35.724C59.36 35.724 56.544 34.764 54.656 33.388L52.896 37.292C54.88 38.828 58.464 39.884 62.016 39.884ZM85.1743 22.028C82.9663 22.028 81.0463 22.732 79.7023 24.076V15.756H74.7103V39.5H79.7023V30.988C79.7023 27.82 81.4303 26.348 83.8303 26.348C86.0383 26.348 87.3183 27.628 87.3183 30.412V39.5H92.3103V29.644C92.3103 24.396 89.2383 22.028 85.1743 22.028ZM105.215 39.756C110.687 39.756 114.655 36.076 114.655 30.892C114.655 25.708 110.687 22.028 105.215 22.028C99.7428 22.028 95.7428 25.708 95.7428 30.892C95.7428 36.076 99.7428 39.756 105.215 39.756ZM105.215 35.66C102.719 35.66 100.799 33.868 100.799 30.892C100.799 27.916 102.719 26.124 105.215 26.124C107.711 26.124 109.599 27.916 109.599 30.892C109.599 33.868 107.711 35.66 105.215 35.66ZM117.992 39.5H122.984V15.756H117.992V39.5ZM127.617 39.5H132.609V15.756H127.617V39.5ZM149.594 22.284V30.796C149.594 33.964 147.93 35.436 145.626 35.436C143.418 35.436 142.138 34.156 142.138 31.276V22.284H137.146V32.012C137.146 37.324 140.186 39.756 144.506 39.756C146.618 39.756 148.538 38.956 149.85 37.452V39.5H154.586V22.284H149.594ZM164.714 39.5H167.882V19.884H175.562V17.1H157.034V19.884H164.714V39.5ZM192.178 31.116C192.178 25.9 188.69 22.38 183.794 22.38C178.898 22.38 175.282 25.996 175.282 31.02C175.282 36.076 178.93 39.692 184.402 39.692C187.218 39.692 189.554 38.732 191.09 36.94L189.394 34.956C188.146 36.332 186.482 37.004 184.498 37.004C181.138 37.004 178.738 35.02 178.354 32.044H192.114C192.146 31.756 192.178 31.372 192.178 31.116ZM183.794 24.972C186.77 24.972 188.914 26.988 189.234 29.836H178.354C178.674 26.956 180.85 24.972 183.794 24.972ZM203.835 39.692C206.875 39.692 209.403 38.412 210.747 36.044L208.411 34.572C207.323 36.236 205.659 37.004 203.803 37.004C200.475 37.004 197.979 34.7 197.979 31.02C197.979 27.404 200.475 25.068 203.803 25.068C205.659 25.068 207.323 25.836 208.411 27.5L210.747 25.996C209.403 23.628 206.875 22.38 203.835 22.38C198.619 22.38 194.875 25.964 194.875 31.02C194.875 36.076 198.619 39.692 203.835 39.692ZM223.562 22.38C220.97 22.38 218.858 23.308 217.578 24.94V15.756H214.506V39.5H217.578V30.764C217.578 27.084 219.69 25.132 222.954 25.132C225.866 25.132 227.53 26.764 227.53 30.092V39.5H230.602V29.74C230.602 24.748 227.69 22.38 223.562 22.38Z" fill="#EDEDED"/>
</svg>
